<svg width="512" height="512" viewBox="0 0 512 512" fill="none" xmlns="http://www.w3.org/2000/svg">
<path d="M381.421 275.466C396.064 302.312 339.516 331.121 324.456 306.895C239.337 363.86 61.8947 219.156 170.586 162.846C170.586 140.584 193.317 108.701 216.42 91.4768C327.075 8.97612 488.803 196.894 381.421 275.466Z" fill="url(#paint0_linear_1306_1046)"/>
<path d="M381.421 275.466C396.064 302.312 339.516 331.121 324.456 306.895C239.337 363.86 61.8947 219.156 170.586 162.846C170.586 140.584 193.317 108.701 216.42 91.4768C327.075 8.97612 488.803 196.894 381.421 275.466Z" fill="url(#paint1_radial_1306_1046)"/>
<path d="M381.421 275.466C396.064 302.312 339.516 331.121 324.456 306.895C239.337 363.86 61.8947 219.156 170.586 162.846C170.586 140.584 193.317 108.701 216.42 91.4768C327.075 8.97612 488.803 196.894 381.421 275.466Z" fill="url(#paint2_radial_1306_1046)"/>
<path d="M324.456 306.895C324.02 303.84 324.456 298.383 327.075 295.764M324.456 306.895C339.516 331.121 396.064 302.312 381.421 275.466M324.456 306.895C239.337 363.86 61.8947 219.156 170.586 162.846C170.586 140.584 193.317 108.701 216.42 91.4768C327.075 8.97612 488.803 196.894 381.421 275.466M381.421 275.466C375.135 263.942 367.889 265.427 363.742 266.3" stroke="black" stroke-width="2" stroke-linecap="round"/>
<path d="M204.634 463.384C203.324 481.718 221.658 508.563 232.134 451.598C233.579 443.741 205.195 455.527 204.634 463.384Z" fill="url(#paint3_radial_1306_1046)" stroke="black" stroke-width="2"/>
<path d="M126.716 424.098C119.383 440.86 94.4147 438.067 82.8472 434.575C71.3854 431.136 82.1924 416.241 84.8114 404.455C87.4305 392.67 134.05 407.336 126.716 424.098Z" fill="url(#paint4_radial_1306_1046)" stroke="black" stroke-width="2"/>
<path d="M73.0256 365.169C65.6659 329.29 99.6528 326.974 119.514 329.812C130.051 331.317 235.734 400.364 228.205 411.658C255.051 452.908 210.527 469.932 193.503 458.801C155.788 453.039 150.288 410.566 152.252 390.05C151.205 391.622 144.832 385.903 141.776 382.848C139.681 386.515 133.349 386.776 129.99 387.431C135.883 410.348 131.586 421.977 126.717 422.789C105.24 404.455 94.6329 401.836 78.2638 406.419C78.9186 386.776 78.2638 390.705 73.0256 365.169Z" fill="url(#paint5_radial_1306_1046)"/>
<path d="M126.717 383.503C126.717 383.503 129.295 385.564 129.99 387.431M129.99 387.431C135.883 410.348 131.586 421.977 126.717 422.789C105.24 404.455 94.6329 401.836 78.2638 406.419C78.9186 386.776 78.2638 390.705 73.0256 365.169C65.6659 329.29 99.6528 326.974 119.514 329.812C130.051 331.317 235.734 400.364 228.205 411.658M129.99 387.431C133.349 386.776 139.681 386.515 141.776 382.848M129.99 387.431V381.538M141.776 382.848L137.848 378.265M141.776 382.848C144.832 385.903 151.205 391.622 152.252 390.05M152.252 390.05C153.3 388.479 153.562 386.34 153.562 385.467M152.252 390.05C150.288 410.566 155.788 453.039 193.503 458.801M193.503 458.801C195.685 458.146 200.574 456.051 202.67 452.908M193.503 458.801C210.527 469.932 255.051 452.908 228.205 411.658M228.205 411.658L217.074 420.17" stroke="black" stroke-width="2"/>
<path d="M213.146 304.276C228.775 310.267 246.932 318.026 253.741 318.026C263.563 310.169 276.658 319.99 277.313 327.848C277.968 335.705 280.957 361.241 274.694 374.336C270.232 383.666 253.85 388.675 241.956 391.494C241.301 396.033 238.158 406.813 230.825 413.622C217.074 408.384 241.956 416.241 213.146 395.289C183.027 357.312 124.098 352.074 120.169 329.812C129.336 321.518 151.598 291.181 150.288 275.466C150.288 275.466 187.932 294.611 213.146 304.276Z" fill="url(#paint6_linear_1306_1046)"/>
<path d="M213.146 304.276C228.775 310.267 246.932 318.026 253.741 318.026C263.563 310.169 276.658 319.99 277.313 327.848C277.968 335.705 280.957 361.241 274.694 374.336C270.232 383.666 253.85 388.675 241.956 391.494C241.301 396.033 238.158 406.813 230.825 413.622C217.074 408.384 241.956 416.241 213.146 395.289C183.027 357.312 124.098 352.074 120.169 329.812C129.336 321.518 151.598 291.181 150.288 275.466C150.288 275.466 187.932 294.611 213.146 304.276Z" fill="url(#paint7_radial_1306_1046)"/>
<path d="M213.146 304.276C228.775 310.267 246.932 318.026 253.741 318.026C263.563 310.169 276.658 319.99 277.313 327.848C277.968 335.705 280.957 361.241 274.694 374.336C270.232 383.666 253.85 388.675 241.956 391.494C241.301 396.033 238.158 406.813 230.825 413.622C217.074 408.384 241.956 416.241 213.146 395.289C183.027 357.312 124.098 352.074 120.169 329.812C129.336 321.518 151.598 291.181 150.288 275.466C150.288 275.466 187.932 294.611 213.146 304.276Z" fill="url(#paint8_radial_1306_1046)"/>
<path d="M213.146 304.276C228.775 310.267 246.932 318.026 253.741 318.026C263.563 310.169 276.658 319.99 277.313 327.848C277.968 335.705 280.957 361.241 274.694 374.336C270.232 383.666 253.85 388.675 241.956 391.494C241.301 396.033 238.158 406.813 230.825 413.622C217.074 408.384 241.956 416.241 213.146 395.289C183.027 357.312 124.098 352.074 120.169 329.812C129.336 321.518 151.598 291.181 150.288 275.466C150.288 275.466 187.932 294.611 213.146 304.276Z" fill="url(#paint9_radial_1306_1046)"/>
<path d="M213.146 304.276C228.775 310.267 246.932 318.026 253.741 318.026C263.563 310.169 276.658 319.99 277.313 327.848C277.968 335.705 280.957 361.241 274.694 374.336C270.232 383.666 253.85 388.675 241.956 391.494C241.301 396.033 238.158 406.813 230.825 413.622C217.074 408.384 241.956 416.241 213.146 395.289C183.027 357.312 124.098 352.074 120.169 329.812C129.336 321.518 151.598 291.181 150.288 275.466C150.288 275.466 187.932 294.611 213.146 304.276Z" fill="url(#paint10_radial_1306_1046)"/>
<path d="M213.146 304.276C228.775 310.267 246.932 318.026 253.741 318.026C263.563 310.169 276.658 319.99 277.313 327.848C277.968 335.705 280.957 361.241 274.694 374.336C270.232 383.666 253.85 388.675 241.956 391.494C241.301 396.033 238.158 406.813 230.825 413.622C217.074 408.384 241.956 416.241 213.146 395.289C183.027 357.312 124.098 352.074 120.169 329.812C129.336 321.518 151.598 291.181 150.288 275.466C150.288 275.466 187.932 294.611 213.146 304.276Z" fill="url(#paint11_radial_1306_1046)"/>
<path d="M213.146 304.276C228.775 310.267 246.932 318.026 253.741 318.026C263.563 310.169 276.658 319.99 277.313 327.848C277.968 335.705 280.957 361.241 274.694 374.336C270.232 383.666 253.85 388.675 241.956 391.494C241.301 396.033 238.158 406.813 230.825 413.622C217.074 408.384 241.956 416.241 213.146 395.289C183.027 357.312 124.098 352.074 120.169 329.812C129.336 321.518 151.598 291.181 150.288 275.466C150.288 275.466 187.932 294.611 213.146 304.276Z" fill="url(#paint12_radial_1306_1046)"/>
<path d="M213.146 304.276C228.775 310.267 246.932 318.026 253.741 318.026C263.563 310.169 276.658 319.99 277.313 327.848C277.968 335.705 280.957 361.241 274.694 374.336C270.232 383.666 253.85 388.675 241.956 391.494C241.301 396.033 238.158 406.813 230.825 413.622C217.074 408.384 241.956 416.241 213.146 395.289C183.027 357.312 124.098 352.074 120.169 329.812C129.336 321.518 151.598 291.181 150.288 275.466C150.288 275.466 187.932 294.611 213.146 304.276Z" fill="url(#paint13_radial_1306_1046)"/>
<path d="M213.146 304.276C228.775 310.267 246.932 318.026 253.741 318.026C263.563 310.169 276.658 319.99 277.313 327.848C277.968 335.705 280.957 361.241 274.694 374.336C270.232 383.666 253.85 388.675 241.956 391.494C241.301 396.033 238.158 406.813 230.825 413.622C217.074 408.384 241.956 416.241 213.146 395.289C183.027 357.312 124.098 352.074 120.169 329.812C129.336 321.518 151.598 291.181 150.288 275.466C150.288 275.466 187.932 294.611 213.146 304.276Z" fill="url(#paint14_radial_1306_1046)"/>
<path d="M234.753 312.788C235.026 314.7 228.574 315.359 220.675 314.098M220.675 314.098C209.644 312.336 195.792 306.829 193.503 295.764M220.675 314.098C219.365 311.478 220.785 308.641 221.658 307.55M214.455 304.931C214.892 306.677 215.503 310.562 214.455 312.133M204.634 301.002C203.324 302.094 201.098 304.931 202.67 307.55M230.825 393.979C232.352 391.578 235.408 385.86 235.408 382.193M230.825 393.979C225.586 394.852 213.146 395.289 213.146 395.289M230.825 393.979C233.084 393.414 237.154 392.633 241.956 391.494M213.146 395.289C222.967 390.051 225.586 365.169 221.658 361.896C226.069 362.607 232.856 363.226 237.372 363.026M213.146 395.289C241.956 416.241 217.074 408.384 230.825 413.622C238.158 406.813 241.301 396.033 241.956 391.494M213.146 395.289C183.027 357.312 124.098 352.074 120.169 329.812C129.336 321.518 151.598 291.181 150.288 275.466C150.288 275.466 187.932 294.611 213.146 304.276C228.775 310.267 246.932 318.026 253.741 318.026C263.563 310.169 276.658 319.99 277.313 327.848C277.968 335.705 280.957 361.241 274.694 374.336C270.232 383.666 253.85 388.675 241.956 391.494M241.956 352.074C241.956 352.074 243.92 358.622 241.956 361.896C241.546 362.579 239.782 362.919 237.372 363.026M237.372 363.026C238.027 365.05 238.944 369.884 237.372 373.027M124.387 325.473C125.542 327.397 127.739 329.781 130.058 331.776M130.058 331.776L124.752 338.324M130.058 331.776C131.044 332.624 132.118 333.476 133.264 334.329M133.264 334.329C132.609 334.569 130.645 336.229 128.026 340.943M133.264 334.329C133.898 334.8 134.553 335.272 135.229 335.743M135.229 335.743C134.183 337.695 131.684 341.86 130.058 342.907M135.229 335.743C136.461 336.604 137.76 337.465 139.11 338.324M139.11 338.324C137.598 339.415 134.443 342.384 133.919 345.526M139.11 338.324C143.167 340.906 147.685 343.469 152.253 345.951M147.669 344.217C147.014 344.872 145.181 346.967 143.086 350.11M152.253 345.951C150.725 346.682 147.669 349.062 147.669 352.729M152.253 345.951C155.499 347.714 158.771 349.436 161.921 351.094L162.074 351.174M162.074 351.174C161.638 352.566 160.11 355.741 157.491 357.312M162.074 351.174C163.87 352.119 165.625 353.043 167.312 353.942M167.312 353.942C168.206 354.418 169.08 354.887 169.931 355.348C172.59 356.635 175.519 358.179 178.621 359.931M167.312 353.942C165.784 355.502 162.86 358.884 163.384 359.931M178.621 359.931C195.123 369.249 216.968 384.842 229.086 398.282M178.621 359.931C178.344 361.459 177.134 364.777 174.515 365.824M229.086 398.282C232.082 401.605 234.484 404.797 236.063 407.729M229.086 398.282C229.239 398.146 229.383 398.021 229.515 397.908M229.086 398.282C227.458 399.726 224.756 402.365 224.277 403.801M221.658 395.289C221.221 396.38 219.955 398.694 218.384 399.217" stroke="black" stroke-width="2" stroke-linejoin="round"/>
<path d="M232.134 326.538H225.586C222.312 326.538 222.312 330.467 226.896 330.467C227.332 331.558 226.896 334.395 226.241 335.705C225.586 337.014 222.968 334.396 221.658 333.086L221.658 333.086C220.348 331.776 217.598 333.348 219.693 337.014C221.658 339.415 228.205 340.943 230.825 337.669C231.479 335.705 231.479 330.467 231.479 330.467C236.717 330.467 236.717 326.538 232.134 326.538Z" fill="url(#paint15_radial_1306_1046)" stroke="black" stroke-width="2" stroke-linejoin="round"/>
<path d="M232.134 331.121C235.408 329.812 238.9 332.868 239.991 336.36C241.039 338.544 237.7 339.633 236.717 337.669C234.753 333.741 232.134 335.05 233.444 337.669C234.753 339.633 236.717 342.253 236.063 344.872C234.426 351.419 226.023 348.582 223.622 345.526C221.003 342.907 224.277 340.288 225.586 342.253C228.86 346.836 234.098 344.217 230.825 340.943C227.551 337.669 228.86 332.431 232.134 331.121Z" fill="url(#paint16_radial_1306_1046)" stroke="black" stroke-width="2"/>
<path d="M110.347 295.764L123.443 218.501L168.949 252.222L214.455 285.942L202.015 331.121L240.646 359.931L193.503 361.895L110.347 295.764Z" fill="url(#paint17_linear_1306_1046)"/>
<path d="M193.503 361.895L110.347 295.764L123.443 218.501L168.949 252.222L214.455 285.942L202.015 331.121M193.503 361.895L240.646 359.931L202.015 331.121M193.503 361.895L202.015 331.121M157.491 276.121C146.36 270.883 142.431 284.633 145.05 291.181C147.669 297.728 153.562 291.181 154.217 292.49C154.217 297.728 158.582 299.474 160.764 299.693C166.12 299.693 167.967 293.8 167.967 289.871C161.419 289.871 164.693 282.014 168.622 282.014C167.213 279.729 163.873 277.08 161.419 277.43C161.419 277.43 165.578 275.425 165.348 274.811C163.384 269.573 160.764 268.919 157.491 270.883C156.836 272.192 157.491 276.121 157.491 276.121Z" stroke="black" stroke-width="2" stroke-linejoin="round"/>
<path d="M212.129 204.751C204.272 196.239 216.713 180.525 224.57 191.656M171.895 188.382C138.502 158.263 179.098 100.643 217.729 130.108C235.487 143.652 234.29 163.421 224.57 177.906C213.144 194.932 189.939 204.657 171.895 188.382Z" stroke="black" stroke-width="2" stroke-linecap="round"/>
<path d="M249.158 189.692C243.92 182.489 232.134 176.596 226.241 177.906" stroke="black" stroke-width="2" stroke-linecap="round"/>
<path d="M319.218 228.228C332.603 211.005 332.229 184.041 304.813 170.704C256.36 147.132 222.967 219.811 270.11 240.109C290.578 248.922 308.948 241.442 319.218 228.228ZM319.218 228.228C324.456 228.228 336.242 240.109 351.302 256.478" stroke="black" stroke-width="2" stroke-linecap="round"/>
<path d="M238.027 49.5716C324.98 27.0476 379.02 72.0519 395.171 97.3696C404.993 88.8576 410.231 64.6313 387.314 51.5359C401.719 44.9882 446.243 77.0718 398.445 103.917C427.255 120.941 446.898 148.441 436.421 220.466C432.493 240.109 412.195 268.264 381.421 276.776C380.548 273.284 375.79 266.3 363.742 266.3C363.959 270.194 351.522 277.948 338.549 278.084C338.429 278.103 338.314 278.103 338.206 278.085C338.321 278.085 338.435 278.085 338.549 278.084C342.805 277.413 354.377 254.063 347.373 238.145C305.468 215.882 278.623 158.263 305.468 99.9887C290.408 105.882 251.122 150.406 283.861 189.037C247.194 175.942 219.694 151.715 221.658 111.774C211.836 126.834 218.384 152.37 224.932 158.263C209.217 148.441 198.086 134.037 198.086 109.81C194.158 113.084 179.753 136.656 174.515 150.406C171.372 136.263 176.042 114.175 179.098 104.572C173.336 106.143 164.038 125.525 161.419 135.346C148.324 80.3457 222.967 56.7741 213.801 55.4645C204.634 53.5002 193.503 34.512 194.812 26C198.741 37.7858 221.658 53.8118 238.027 49.5716Z" fill="url(#paint18_linear_1306_1046)"/>
<path d="M238.027 49.5716L238.278 50.5397L238.027 49.5716ZM194.812 26L195.761 25.6838C195.615 25.2457 195.188 24.9646 194.728 25.0036C194.268 25.0426 193.894 25.3915 193.824 25.8479L194.812 26ZM213.801 55.4645L213.591 56.4423L213.625 56.4496L213.659 56.4545L213.801 55.4645ZM161.419 135.346L160.446 135.578C160.552 136.023 160.948 136.34 161.406 136.346C161.864 136.352 162.267 136.046 162.385 135.604L161.419 135.346ZM179.098 104.572L180.051 104.875C180.162 104.526 180.073 104.144 179.82 103.88C179.566 103.615 179.188 103.511 178.835 103.607L179.098 104.572ZM174.515 150.406L173.538 150.623C173.634 151.054 174.002 151.371 174.442 151.403C174.882 151.435 175.292 151.174 175.449 150.762L174.515 150.406ZM198.086 109.81H199.086V107.675L197.446 109.042L198.086 109.81ZM224.932 158.263L224.402 159.111C224.841 159.386 225.418 159.279 225.73 158.865C226.042 158.451 225.986 157.867 225.601 157.52L224.932 158.263ZM221.658 111.774L222.657 111.824C222.679 111.373 222.396 110.963 221.966 110.823C221.537 110.684 221.067 110.85 220.82 111.228L221.658 111.774ZM283.861 189.037L283.524 189.979C283.95 190.131 284.426 189.978 284.683 189.606C284.94 189.234 284.916 188.736 284.624 188.39L283.861 189.037ZM305.468 99.9887L306.376 100.407C306.547 100.037 306.475 99.5995 306.196 99.3026C305.916 99.0058 305.484 98.9088 305.104 99.0574L305.468 99.9887ZM347.373 238.145L348.288 237.742C348.198 237.536 348.041 237.367 347.842 237.261L347.373 238.145ZM338.206 278.085V277.085C337.686 277.085 337.253 277.484 337.21 278.003C337.167 278.521 337.529 278.986 338.042 279.072L338.206 278.085ZM363.742 266.3V265.3C363.467 265.3 363.205 265.413 363.016 265.612C362.827 265.812 362.729 266.081 362.744 266.355L363.742 266.3ZM381.421 276.776L380.451 277.018C380.516 277.28 380.684 277.504 380.917 277.64C381.15 277.775 381.428 277.811 381.688 277.74L381.421 276.776ZM436.421 220.466L437.402 220.662C437.405 220.645 437.408 220.627 437.411 220.61L436.421 220.466ZM392.552 102.608L391.658 102.161C391.52 102.436 391.517 102.759 391.649 103.038C391.781 103.316 392.035 103.517 392.335 103.584L392.552 102.608ZM387.314 51.5359L386.9 50.6255C386.558 50.7809 386.332 51.1146 386.315 51.4897C386.298 51.8647 386.492 52.2179 386.818 52.4042L387.314 51.5359ZM396.014 96.8318C379.666 71.205 325.21 25.9551 237.776 48.6036L238.278 50.5397C324.75 28.1401 378.374 72.8989 394.328 97.9074L396.014 96.8318ZM237.776 48.6036C229.968 50.6263 220.434 47.8273 212.268 42.9376C208.206 40.5052 204.533 37.5845 201.643 34.5605C198.743 31.526 196.679 28.4388 195.761 25.6838L193.864 26.3162C194.91 29.4541 197.184 32.7898 200.197 35.9424C203.22 39.1056 207.036 42.1362 211.241 44.6535C219.607 49.6632 229.717 52.7572 238.278 50.5397L237.776 48.6036ZM193.824 25.8479C193.461 28.2058 193.966 31.1666 194.989 34.2348C196.02 37.3269 197.611 40.6305 199.529 43.7156C201.446 46.7997 203.707 49.6946 206.095 51.9551C208.466 54.2005 211.041 55.8959 213.591 56.4423L214.01 54.4867C211.977 54.051 209.723 52.6362 207.47 50.5029C205.233 48.3846 203.075 45.6322 201.227 42.6597C199.38 39.6882 197.861 36.5259 196.886 33.6024C195.904 30.6549 195.509 28.0502 195.801 26.1521L193.824 25.8479ZM213.659 56.4545C213.904 56.4894 213.929 56.5271 213.868 56.4868C213.824 56.4576 213.729 56.382 213.658 56.239C213.583 56.0869 213.573 55.9344 213.591 55.8201C213.617 55.6491 213.694 55.618 213.569 55.756C213.469 55.8669 213.298 56.0219 213.034 56.225C211.958 57.0543 209.918 58.2568 207.133 59.9032C201.628 63.157 193.508 67.978 185.505 74.4958C169.518 87.5165 153.765 107.515 160.446 135.578L162.392 135.114C155.978 108.177 170.999 88.8893 186.768 76.0466C194.643 69.6328 202.647 64.8778 208.15 61.6249C210.869 60.0179 213.055 58.7344 214.255 57.8091C214.561 57.5735 214.837 57.3356 215.051 57.0987C215.241 56.889 215.501 56.5552 215.567 56.1263C215.605 55.883 215.579 55.6126 215.452 55.3538C215.328 55.104 215.143 54.9326 214.971 54.8188C214.655 54.6092 214.27 54.5215 213.942 54.4746L213.659 56.4545ZM162.385 135.604C163.67 130.786 166.616 123.558 169.961 117.339C171.632 114.232 173.385 111.41 175.059 109.28C175.896 108.216 176.698 107.344 177.445 106.7C178.201 106.048 178.844 105.678 179.361 105.537L178.835 103.607C177.912 103.859 177.004 104.439 176.138 105.186C175.263 105.941 174.373 106.918 173.487 108.044C171.715 110.298 169.9 113.229 168.199 116.392C164.8 122.711 161.787 130.085 160.453 135.088L162.385 135.604ZM178.145 104.269C176.599 109.126 174.655 117.105 173.491 125.652C172.329 134.179 171.928 143.377 173.538 150.623L175.491 150.189C173.958 143.292 174.321 134.374 175.473 125.922C176.622 117.488 178.541 109.621 180.051 104.875L178.145 104.269ZM175.449 150.762C178.038 143.966 182.915 134.692 187.652 126.689C190.017 122.692 192.337 119.029 194.306 116.168C195.291 114.736 196.183 113.513 196.944 112.551C197.717 111.575 198.319 110.918 198.726 110.578L197.446 109.042C196.871 109.521 196.163 110.316 195.376 111.31C194.578 112.318 193.659 113.58 192.658 115.034C190.658 117.942 188.313 121.645 185.931 125.67C181.174 133.708 176.229 143.096 173.58 150.05L175.449 150.762ZM197.086 109.81C197.086 122.084 199.908 131.925 204.76 139.956C209.608 147.98 216.448 154.14 224.402 159.111L225.462 157.415C217.7 152.564 211.118 146.611 206.472 138.921C201.83 131.237 199.086 121.762 199.086 109.81H197.086ZM225.601 157.52C224.132 156.198 222.565 153.665 221.205 150.26C219.857 146.883 218.751 142.748 218.147 138.321C216.935 129.435 217.77 119.566 222.495 112.321L220.82 111.228C215.724 119.042 214.922 129.471 216.165 138.591C216.79 143.168 217.934 147.463 219.348 151.002C220.75 154.513 222.457 157.381 224.263 159.006L225.601 157.52ZM220.659 111.725C219.664 131.962 226.141 148.258 237.523 161.135C248.884 173.989 265.093 183.396 283.524 189.979L284.197 188.095C265.961 181.582 250.086 172.329 239.022 159.811C227.978 147.316 221.688 131.528 222.657 111.824L220.659 111.725ZM284.624 188.39C268.57 169.447 270.153 149.096 277.65 132.651C281.404 124.415 286.638 117.18 291.862 111.642C297.107 106.083 302.266 102.315 305.832 100.92L305.104 99.0574C301.14 100.608 295.741 104.617 290.407 110.27C285.053 115.945 279.687 123.36 275.83 131.821C268.104 148.769 266.413 169.996 283.098 189.684L284.624 188.39ZM304.56 99.5703C277.483 158.347 304.551 216.527 346.904 239.028L347.842 237.261C306.385 215.237 279.762 158.179 306.376 100.407L304.56 99.5703ZM346.458 238.547C349.816 246.18 348.75 255.713 346.232 263.525C344.979 267.414 343.384 270.817 341.859 273.271C341.095 274.5 340.364 275.466 339.719 276.132C339.035 276.839 338.584 277.066 338.394 277.096L338.705 279.071C339.579 278.934 340.42 278.284 341.156 277.523C341.932 276.722 342.748 275.629 343.558 274.327C345.18 271.716 346.839 268.161 348.135 264.139C350.717 256.129 351.934 246.028 348.288 237.742L346.458 238.547ZM338.394 277.096C338.365 277.1 338.36 277.097 338.371 277.099L338.042 279.072C338.269 279.11 338.493 279.105 338.705 279.071L338.394 277.096ZM338.206 279.085C338.324 279.085 338.442 279.085 338.56 279.083L338.539 277.084C338.428 277.085 338.317 277.085 338.206 277.085V279.085ZM338.56 279.083C345.228 279.014 351.734 276.991 356.552 274.489C358.962 273.238 360.986 271.848 362.412 270.488C363.124 269.809 363.71 269.115 364.116 268.426C364.516 267.746 364.783 267 364.741 266.244L362.744 266.355C362.756 266.573 362.681 266.921 362.392 267.411C362.109 267.892 361.657 268.444 361.031 269.041C359.78 270.235 357.925 271.522 355.631 272.714C351.042 275.096 344.843 277.018 338.539 277.084L338.56 279.083ZM363.742 267.3C375.334 267.3 379.69 273.974 380.451 277.018L382.391 276.533C381.406 272.593 376.246 265.3 363.742 265.3V267.3ZM381.688 277.74C397.293 273.423 410.22 264.134 419.735 253.46C429.241 242.796 435.396 230.69 437.402 220.662L435.441 220.27C433.518 229.884 427.56 241.677 418.242 252.13C408.932 262.572 396.323 271.616 381.154 275.812L381.688 277.74ZM437.411 220.61C442.662 184.506 440.387 159.428 433.094 141.195C425.787 122.928 413.49 111.646 398.954 103.056L397.936 104.778C412.21 113.213 424.139 124.192 431.237 141.938C438.349 159.717 440.657 184.401 435.432 220.322L437.411 220.61ZM398.662 102.941L392.769 101.632L392.335 103.584L398.228 104.893L398.662 102.941ZM393.446 103.055L396.065 97.8168L394.277 96.9224L391.658 102.161L393.446 103.055ZM395.826 98.1253C400.986 93.6531 404.856 85.1665 404.519 76.1342C404.178 67.0295 399.567 57.3859 387.81 50.6677L386.818 52.4042C397.978 58.7813 402.206 67.7985 402.52 76.2089C402.837 84.6916 399.177 92.5741 394.516 96.6139L395.826 98.1253ZM387.728 52.4463C390.927 50.9919 396.067 51.6247 401.434 54.0917C406.745 56.533 412.011 60.6554 415.37 65.7544C418.717 70.8334 420.15 76.833 417.952 83.1582C415.74 89.5193 409.791 96.3977 397.955 103.045L398.935 104.789C410.997 98.0141 417.407 90.815 419.841 83.8149C422.287 76.7786 420.651 70.1331 417.041 64.654C413.443 59.1948 407.864 54.8462 402.269 52.2745C396.73 49.7284 390.903 48.8061 386.9 50.6255L387.728 52.4463Z" fill="black"/>
<g filter="url(#filter0_f_1306_1046)">
<path d="M236.626 107.413C230.733 101.52 247.757 75.9839 254.959 81.8768C262.162 87.7698 242.519 113.306 236.626 107.413Z" fill="#B5B4BA" fill-opacity="0.8"/>
<path d="M250.376 114.615C246.447 111.996 251.685 100.21 256.269 102.829C260.852 105.448 254.304 117.234 250.376 114.615Z" fill="#B5B4BA" fill-opacity="0.8"/>
<path d="M260.852 119.199C256.923 116.58 260.197 110.032 264.781 112.651C269.364 115.27 264.781 121.818 260.852 119.199Z" fill="#B5B4BA" fill-opacity="0.8"/>
<path d="M340.734 181.402C330.257 178.128 334.186 142.77 345.972 145.389C357.758 148.008 351.21 184.675 340.734 181.402Z" fill="#B5B4BA" fill-opacity="0.8"/>
<path d="M361.465 184.675C354.262 184.675 354.917 165.032 362.774 165.032C370.632 165.032 368.667 184.675 361.465 184.675Z" fill="#B5B4BA" fill-opacity="0.8"/>
<path d="M378.821 184.675C374.348 184.675 373.038 176.818 378.821 176.818C384.603 176.818 383.294 184.675 378.821 184.675Z" fill="#B5B4BA" fill-opacity="0.8"/>
<path d="M395.079 185.985C391.287 185.985 390.177 179.437 395.079 179.437C399.982 179.437 398.872 185.985 395.079 185.985Z" fill="#B5B4BA" fill-opacity="0.8"/>
</g>
<g filter="url(#filter1_f_1306_1046)">
<path d="M224.932 241.418C226.241 226.359 206.598 215.228 204.634 245.347C202.888 251.021 203.979 262.371 212.491 262.371C221.003 262.371 223.622 256.478 224.932 241.418Z" fill="url(#paint19_radial_1306_1046)"/>
</g>
<path d="M207.304 233.034C211.233 219.283 224.983 229.105 224.983 241.546C224.983 253.986 221.054 262.498 212.542 262.498C204.031 262.498 202.939 251.149 204.685 245.474" stroke="black" stroke-width="2" stroke-linecap="round"/>
<path d="M209.217 270.228C210.527 270.883 214.063 271.799 217.729 270.228" stroke="black" stroke-width="2" stroke-linecap="round"/>
<path d="M188.919 178.561C179.098 172.668 196.825 143.209 205.992 148.447C215.158 153.685 198.741 184.454 188.919 178.561Z" fill="url(#paint20_linear_1306_1046)"/>
<path d="M188.919 178.561C179.098 172.668 196.825 143.209 205.992 148.447C215.158 153.685 198.741 184.454 188.919 178.561Z" fill="url(#paint21_linear_1306_1046)"/>
<path d="M296.349 191.007C306.171 196.9 289.147 233.567 278.016 225.055C266.885 216.543 286.528 185.114 296.349 191.007Z" fill="url(#paint22_linear_1306_1046)"/>
<path d="M296.349 191.007C306.171 196.9 289.147 233.567 278.016 225.055C266.885 216.543 286.528 185.114 296.349 191.007Z" fill="url(#paint23_linear_1306_1046)"/>
<g filter="url(#filter2_f_1306_1046)">
<path d="M203.979 150.406C201.36 149.096 196.776 156.953 200.05 158.263C203.324 159.573 206.598 151.715 203.979 150.406Z" fill="#F4F5F7"/>
</g>
<g filter="url(#filter3_f_1306_1046)">
<path d="M291.992 195.095C289.141 193.622 284.153 202.459 287.716 203.932C291.279 205.405 294.842 196.568 291.992 195.095Z" fill="#F4F5F7"/>
</g>
<path d="M213.801 391.36C223.622 390.05 222.313 364.515 222.313 364.515C222.313 364.515 212.491 362.55 215.11 352.729C214.455 347.491 203.979 340.288 198.741 345.526C193.503 350.764 201.36 357.967 194.158 363.205C180.407 354.038 174.515 340.943 171.896 352.074C164.693 377.61 196.926 393.61 213.801 391.36Z" fill="url(#paint24_radial_1306_1046)"/>
<path d="M222.313 364.515L223.311 364.463L223.271 363.686L222.509 363.534L222.313 364.515ZM213.801 391.36L213.669 390.369L213.801 391.36ZM171.896 352.074L172.858 352.345L172.864 352.324L172.869 352.303L171.896 352.074ZM215.11 352.729L216.076 352.986C216.11 352.862 216.118 352.732 216.102 352.605L215.11 352.729ZM198.741 345.526L199.448 346.233V346.233L198.741 345.526ZM194.158 363.205L193.603 364.037L194.183 364.423L194.746 364.014L194.158 363.205ZM222.313 364.515C221.314 364.566 221.314 364.566 221.314 364.566C221.314 364.566 221.314 364.566 221.314 364.566C221.314 364.567 221.314 364.568 221.314 364.569C221.314 364.571 221.314 364.576 221.315 364.581C221.315 364.592 221.316 364.61 221.317 364.633C221.319 364.679 221.322 364.749 221.326 364.84C221.333 365.023 221.342 365.293 221.35 365.638C221.366 366.329 221.379 367.319 221.364 368.512C221.333 370.902 221.192 374.091 220.749 377.31C220.304 380.543 219.565 383.736 218.375 386.174C217.18 388.623 215.639 390.106 213.669 390.369L213.933 392.351C216.873 391.959 218.851 389.759 220.173 387.052C221.5 384.333 222.275 380.897 222.73 377.582C223.188 374.254 223.333 370.976 223.364 368.538C223.379 367.317 223.366 366.302 223.349 365.591C223.341 365.235 223.332 364.955 223.324 364.763C223.321 364.667 223.317 364.593 223.315 364.543C223.314 364.518 223.313 364.498 223.312 364.485C223.312 364.478 223.312 364.473 223.312 364.469C223.312 364.468 223.311 364.466 223.311 364.465C223.311 364.465 223.311 364.464 223.311 364.464C223.311 364.464 223.311 364.463 222.313 364.515ZM213.669 390.369C205.54 391.452 193.52 388.123 184.417 381.335C175.35 374.574 169.408 364.577 172.858 352.345L170.933 351.803C167.181 365.107 173.753 375.878 183.221 382.938C192.653 389.972 205.186 393.517 213.933 392.351L213.669 390.369ZM222.313 364.515C222.509 363.534 222.509 363.534 222.51 363.534C222.51 363.534 222.51 363.534 222.51 363.534C222.511 363.534 222.511 363.534 222.511 363.534C222.511 363.534 222.511 363.534 222.51 363.534C222.507 363.534 222.503 363.533 222.497 363.531C222.484 363.529 222.462 363.524 222.432 363.517C222.373 363.503 222.281 363.48 222.162 363.447C221.925 363.382 221.583 363.276 221.177 363.121C220.361 362.807 219.316 362.301 218.358 361.527C217.404 360.756 216.551 359.735 216.074 358.381C215.598 357.033 215.466 355.277 216.076 352.986L214.144 352.471C213.445 355.091 213.559 357.264 214.188 359.047C214.815 360.823 215.927 362.134 217.101 363.083C218.271 364.027 219.517 364.626 220.461 364.988C220.935 365.17 221.339 365.295 221.629 365.375C221.774 365.415 221.891 365.444 221.974 365.463C222.015 365.473 222.048 365.481 222.072 365.486C222.084 365.488 222.094 365.49 222.102 365.492C222.105 365.493 222.108 365.493 222.111 365.494C222.112 365.494 222.113 365.494 222.114 365.495C222.115 365.495 222.115 365.495 222.115 365.495C222.116 365.495 222.117 365.495 222.313 364.515ZM216.102 352.605C215.905 351.022 214.992 349.41 213.768 348.001C212.529 346.576 210.898 345.273 209.117 344.318C205.628 342.446 201.13 341.723 198.034 344.819L199.448 346.233C201.59 344.092 204.949 344.351 208.172 346.08C209.746 346.925 211.184 348.077 212.258 349.313C213.346 350.564 213.988 351.816 214.118 352.853L216.102 352.605ZM198.034 344.819C195 347.853 195.806 351.54 196.195 354.496C196.399 356.049 196.514 357.439 196.203 358.736C195.904 359.983 195.191 361.217 193.569 362.396L194.746 364.014C196.726 362.574 197.731 360.943 198.148 359.203C198.553 357.512 198.382 355.793 198.177 354.235C197.748 350.971 197.244 348.438 199.448 346.233L198.034 344.819ZM194.712 362.373C187.893 357.827 183.172 352.426 179.505 349.27C178.607 348.498 177.75 347.843 176.939 347.407C176.138 346.975 175.262 346.691 174.377 346.843C173.448 347.001 172.735 347.597 172.196 348.444C171.67 349.271 171.26 350.409 170.922 351.845L172.869 352.303C173.186 350.956 173.533 350.069 173.884 349.517C174.222 348.985 174.507 348.849 174.714 348.814C174.964 348.771 175.362 348.829 175.991 349.168C176.61 349.501 177.338 350.044 178.2 350.786C181.571 353.687 186.672 359.417 193.603 364.037L194.712 362.373Z" fill="black"/>
<path d="M103.145 280.704C99.0039 284.846 97.2521 289.871 97.2521 296.419C97.2521 302.966 103.216 308.674 117.55 310.824C130.645 312.788 126.498 305.586 119.514 302.966C109.562 297.728 110.347 291.835 111.657 290.526C112.966 289.216 112.966 277.431 107.728 272.192C102.49 266.954 103.8 280.05 103.145 280.704Z" fill="url(#paint25_radial_1306_1046)" stroke="black" stroke-width="2"/>
<defs>
<filter id="filter0_f_1306_1046" x="233.408" y="79.0004" width="166.945" height="108.984" filterUnits="userSpaceOnUse" color-interpolation-filters="sRGB">
<feFlood flood-opacity="0" result="BackgroundImageFix"/>
<feBlend mode="normal" in="SourceGraphic" in2="BackgroundImageFix" result="shape"/>
<feGaussianBlur stdDeviation="1" result="effect1_foregroundBlur_1306_1046"/>
</filter>
<filter id="filter1_f_1306_1046" x="199.928" y="222.335" width="29.0667" height="44.0356" filterUnits="userSpaceOnUse" color-interpolation-filters="sRGB">
<feFlood flood-opacity="0" result="BackgroundImageFix"/>
<feBlend mode="normal" in="SourceGraphic" in2="BackgroundImageFix" result="shape"/>
<feGaussianBlur stdDeviation="2" result="effect1_foregroundBlur_1306_1046"/>
</filter>
<filter id="filter2_f_1306_1046" x="197.914" y="149.259" width="8.01624" height="10.1505" filterUnits="userSpaceOnUse" color-interpolation-filters="sRGB">
<feFlood flood-opacity="0" result="BackgroundImageFix"/>
<feBlend mode="normal" in="SourceGraphic" in2="BackgroundImageFix" result="shape"/>
<feGaussianBlur stdDeviation="0.5" result="effect1_foregroundBlur_1306_1046"/>
</filter>
<filter id="filter3_f_1306_1046" x="285.48" y="193.93" width="8.54773" height="11.1667" filterUnits="userSpaceOnUse" color-interpolation-filters="sRGB">
<feFlood flood-opacity="0" result="BackgroundImageFix"/>
<feBlend mode="normal" in="SourceGraphic" in2="BackgroundImageFix" result="shape"/>
<feGaussianBlur stdDeviation="0.5" result="effect1_foregroundBlur_1306_1046"/>
</filter>
<linearGradient id="paint0_linear_1306_1046" x1="360.468" y1="110.465" x2="191.539" y2="278.74" gradientUnits="userSpaceOnUse">
<stop stop-color="#FFEFE8"/>
<stop offset="1" stop-color="#FFEFE8"/>
</linearGradient>
<radialGradient id="paint1_radial_1306_1046" cx="0" cy="0" r="1" gradientUnits="userSpaceOnUse" gradientTransform="translate(186.955 177.251) rotate(-173.709) scale(83.6591 38.7181)">
<stop stop-color="#F9C9B3"/>
<stop offset="1" stop-color="#F8F8F8" stop-opacity="0"/>
</radialGradient>
<radialGradient id="paint2_radial_1306_1046" cx="0" cy="0" r="1" gradientUnits="userSpaceOnUse" gradientTransform="translate(318.563 269.573) rotate(-13.0851) scale(124.361 201.511)">
<stop stop-color="#F9C9B3"/>
<stop offset="1" stop-color="#F8F8F8" stop-opacity="0"/>
</radialGradient>
<radialGradient id="paint3_radial_1306_1046" cx="0" cy="0" r="1" gradientUnits="userSpaceOnUse" gradientTransform="translate(218.377 467.504) rotate(90) scale(18.4963 13.8101)">
<stop stop-color="#FFE8DD"/>
<stop offset="1" stop-color="#FFDDCD"/>
</radialGradient>
<radialGradient id="paint4_radial_1306_1046" cx="0" cy="0" r="1" gradientUnits="userSpaceOnUse" gradientTransform="translate(102.589 418.709) rotate(90) scale(18.5143 24.9089)">
<stop stop-color="#FFE8DD"/>
<stop offset="1" stop-color="#FFDDCD"/>
</radialGradient>
<radialGradient id="paint5_radial_1306_1046" cx="0" cy="0" r="1" gradientUnits="userSpaceOnUse" gradientTransform="translate(101.835 359.276) rotate(36.3604) scale(132.53 163.803)">
<stop stop-color="#F2D2A0"/>
<stop offset="1" stop-color="#F2BA62"/>
</radialGradient>
<linearGradient id="paint6_linear_1306_1046" x1="278.623" y1="306.895" x2="123.443" y2="349.455" gradientUnits="userSpaceOnUse">
<stop stop-color="#05330F"/>
<stop offset="1" stop-color="#178625"/>
</linearGradient>
<radialGradient id="paint7_radial_1306_1046" cx="0" cy="0" r="1" gradientUnits="userSpaceOnUse" gradientTransform="translate(124.098 332.431) rotate(40.2364) scale(11.1503 6.08196)">
<stop stop-color="#D77A3D"/>
<stop offset="0.495286" stop-color="#C26E37" stop-opacity="0.87"/>
<stop offset="1" stop-color="#D7B199" stop-opacity="0"/>
</radialGradient>
<radialGradient id="paint8_radial_1306_1046" cx="0" cy="0" r="1" gradientUnits="userSpaceOnUse" gradientTransform="translate(140.467 344.217) rotate(-149.036) scale(11.4537 6.25354)">
<stop stop-color="#D77A3D"/>
<stop offset="0.520621" stop-color="#D27D44" stop-opacity="0.64"/>
<stop offset="1" stop-color="#D7B199" stop-opacity="0"/>
</radialGradient>
<radialGradient id="paint9_radial_1306_1046" cx="0" cy="0" r="1" gradientUnits="userSpaceOnUse" gradientTransform="translate(154.872 351.419) rotate(-147.529) scale(8.53712 4.62394)">
<stop stop-color="#D77A3D"/>
<stop offset="0.6875" stop-color="#D0814D" stop-opacity="0.59"/>
<stop offset="1" stop-color="#D7B199" stop-opacity="0"/>
</radialGradient>
<radialGradient id="paint10_radial_1306_1046" cx="0" cy="0" r="1" gradientUnits="userSpaceOnUse" gradientTransform="translate(171.241 360.586) rotate(-143.973) scale(8.9058 4.62692)">
<stop stop-color="#D77A3D"/>
<stop offset="0.71875" stop-color="#BE723F" stop-opacity="0.79"/>
<stop offset="1" stop-color="#D7B199" stop-opacity="0"/>
</radialGradient>
<radialGradient id="paint11_radial_1306_1046" cx="0" cy="0" r="1" gradientUnits="userSpaceOnUse" gradientTransform="translate(230.825 407.729) rotate(-130.236) scale(11.1503 6.1364)">
<stop stop-color="#D77A3D"/>
<stop offset="0.455774" stop-color="#A46F4C"/>
<stop offset="1" stop-color="#D7B199" stop-opacity="0"/>
</radialGradient>
<radialGradient id="paint12_radial_1306_1046" cx="0" cy="0" r="1" gradientUnits="userSpaceOnUse" gradientTransform="translate(217.074 397.253) rotate(-23.1986) scale(4.98656 3.17234)">
<stop stop-color="#D77A3D"/>
<stop offset="1" stop-color="#D7B199" stop-opacity="0"/>
</radialGradient>
<radialGradient id="paint13_radial_1306_1046" cx="0" cy="0" r="1" gradientUnits="userSpaceOnUse" gradientTransform="translate(207.908 306.24) rotate(27.8973) scale(12.5947 4.78242)">
<stop stop-color="#D77A3D"/>
<stop offset="0.65391" stop-color="#E98D51" stop-opacity="0.65"/>
<stop offset="1" stop-color="#D7B199" stop-opacity="0"/>
</radialGradient>
<radialGradient id="paint14_radial_1306_1046" cx="0" cy="0" r="1" gradientUnits="userSpaceOnUse" gradientTransform="translate(226.896 311.478) rotate(-175.914) scale(9.19009 3.48964)">
<stop stop-color="#D77A3D"/>
<stop offset="0.65391" stop-color="#E98D51" stop-opacity="0.65"/>
<stop offset="1" stop-color="#D7B199" stop-opacity="0"/>
</radialGradient>
<radialGradient id="paint15_radial_1306_1046" cx="0" cy="0" r="1" gradientUnits="userSpaceOnUse" gradientTransform="translate(230.17 331.776) rotate(129.289) scale(9.30599 6.91959)">
<stop stop-color="#F5F5C5"/>
<stop offset="1" stop-color="#F9FD04"/>
</radialGradient>
<radialGradient id="paint16_radial_1306_1046" cx="0" cy="0" r="1" gradientUnits="userSpaceOnUse" gradientTransform="translate(230.825 333.741) rotate(87.7668) scale(15.1161 13.8899)">
<stop stop-color="#F5F5C5"/>
<stop offset="1" stop-color="#F9FD04"/>
</radialGradient>
<linearGradient id="paint17_linear_1306_1046" x1="226.896" y1="270.228" x2="121.478" y2="309.514" gradientUnits="userSpaceOnUse">
<stop stop-color="#D9D9D9"/>
<stop offset="1" stop-color="#686464"/>
</linearGradient>
<linearGradient id="paint18_linear_1306_1046" x1="415.469" y1="58.7383" x2="272.73" y2="181.18" gradientUnits="userSpaceOnUse">
<stop stop-color="#5B5B5B"/>
<stop offset="1"/>
</linearGradient>
<radialGradient id="paint19_radial_1306_1046" cx="0" cy="0" r="1" gradientUnits="userSpaceOnUse" gradientTransform="translate(221.658 232.252) rotate(116.565) scale(30.7462 17.9744)">
<stop stop-color="#B39496" stop-opacity="0.8"/>
<stop offset="0.697917" stop-color="#F9C9B3" stop-opacity="0.3"/>
<stop offset="1" stop-color="#FCE9E0" stop-opacity="0.3"/>
</radialGradient>
<linearGradient id="paint20_linear_1306_1046" x1="301.588" y1="187.079" x2="272.123" y2="232.257" gradientUnits="userSpaceOnUse">
<stop stop-color="#050507"/>
<stop offset="1" stop-color="#343434"/>
</linearGradient>
<linearGradient id="paint21_linear_1306_1046" x1="207.301" y1="146.483" x2="188.313" y2="177.257" gradientUnits="userSpaceOnUse">
<stop/>
<stop offset="1" stop-color="#343434"/>
</linearGradient>
<linearGradient id="paint22_linear_1306_1046" x1="301.588" y1="187.079" x2="272.123" y2="232.257" gradientUnits="userSpaceOnUse">
<stop stop-color="#050507"/>
<stop offset="1" stop-color="#343434"/>
</linearGradient>
<linearGradient id="paint23_linear_1306_1046" x1="207.301" y1="146.483" x2="188.313" y2="177.257" gradientUnits="userSpaceOnUse">
<stop/>
<stop offset="1" stop-color="#343434"/>
</linearGradient>
<radialGradient id="paint24_radial_1306_1046" cx="0" cy="0" r="1" gradientUnits="userSpaceOnUse" gradientTransform="translate(211.182 371.717) rotate(154.058) scale(26.9411 27.5017)">
<stop stop-color="#FFDDCD"/>
<stop offset="1" stop-color="#FFEAE0"/>
</radialGradient>
<radialGradient id="paint25_radial_1306_1046" cx="0" cy="0" r="1" gradientUnits="userSpaceOnUse" gradientTransform="translate(109.693 287.252) rotate(74.0546) scale(23.8339 17.0938)">
<stop stop-color="#FFDDCD"/>
<stop offset="1" stop-color="#FFE8DD"/>
</radialGradient>
</defs>
</svg>
