<svg viewBox="0 0 460 460" fill="none" xmlns="http://www.w3.org/2000/svg">
  <path
    d="M336.5 252.5C347.682 273 304.5 295 293 276.5C228 320 92.5 209.5 175.5 166.5C175.5 149.5 192.858 125.153 210.5 112C295 49 418.5 192.5 336.5 252.5Z"
    fill="url(#paint0_linear_1306_1046)" />
  <path
    d="M336.5 252.5C347.682 273 304.5 295 293 276.5C228 320 92.5 209.5 175.5 166.5C175.5 149.5 192.858 125.153 210.5 112C295 49 418.5 192.5 336.5 252.5Z"
    fill="url(#paint1_radial_1306_1046)" />
  <path
    d="M336.5 252.5C347.682 273 304.5 295 293 276.5C228 320 92.5 209.5 175.5 166.5C175.5 149.5 192.858 125.153 210.5 112C295 49 418.5 192.5 336.5 252.5Z"
    fill="url(#paint2_radial_1306_1046)" />
  <path
    d="M293 276.5C292.667 274.167 293 270 295 268M293 276.5C304.5 295 347.682 273 336.5 252.5M293 276.5C228 320 92.5 209.5 175.5 166.5C175.5 149.5 192.858 125.153 210.5 112C295 49 418.5 192.5 336.5 252.5M336.5 252.5C331.7 243.7 326.167 244.833 323 245.5"
    stroke="black" stroke-linecap="round" />
  <path d="M201.5 396C200.5 410 214.5 430.5 222.5 387C223.603 381 201.929 390 201.5 396Z"
    fill="url(#paint3_radial_1306_1046)" stroke="black" />
  <path d="M142 366C136.4 378.8 117.333 376.667 108.5 374C99.7475 371.374 108 360 110 351C112 342 147.6 353.2 142 366Z"
    fill="url(#paint4_radial_1306_1046)" stroke="black" />
  <path
    d="M101 321C95.3799 293.602 121.333 291.833 136.5 294C144.546 295.149 225.249 347.876 219.5 356.5C240 388 206 401 193 392.5C164.2 388.1 160 355.667 161.5 340C160.7 341.2 155.833 336.833 153.5 334.5C151.9 337.3 147.065 337.5 144.5 338C149 355.5 145.719 364.38 142 365C125.6 351 117.5 349 105 352.5C105.5 337.5 105 340.5 101 321Z"
    fill="url(#paint5_radial_1306_1046)" />
  <path
    d="M142 335C142 335 143.969 336.574 144.5 338M144.5 338C149 355.5 145.719 364.38 142 365C125.6 351 117.5 349 105 352.5C105.5 337.5 105 340.5 101 321C95.3799 293.602 121.333 291.833 136.5 294C144.546 295.149 225.249 347.876 219.5 356.5M144.5 338C147.065 337.5 151.9 337.3 153.5 334.5M144.5 338V333.5M153.5 334.5L150.5 331M153.5 334.5C155.833 336.833 160.7 341.2 161.5 340M161.5 340C162.3 338.8 162.5 337.167 162.5 336.5M161.5 340C160 355.667 164.2 388.1 193 392.5M193 392.5C194.667 392 198.4 390.4 200 388M193 392.5C206 401 240 388 219.5 356.5M219.5 356.5L211 363"
    stroke="black" />
  <path
    d="M208 274.5C219.935 279.075 233.8 285 239 285C246.5 279 256.5 286.5 257 292.5C257.5 298.5 259.783 318 255 328C251.593 335.124 239.083 338.949 230 341.103C229.5 344.568 227.1 352.8 221.5 358C211 354 230 360 208 344C185 315 140 311 137 294C144 287.667 161 264.5 160 252.5C160 252.5 188.746 267.119 208 274.5Z"
    fill="url(#paint6_linear_1306_1046)" />
  <path
    d="M208 274.5C219.935 279.075 233.8 285 239 285C246.5 279 256.5 286.5 257 292.5C257.5 298.5 259.783 318 255 328C251.593 335.124 239.083 338.949 230 341.103C229.5 344.568 227.1 352.8 221.5 358C211 354 230 360 208 344C185 315 140 311 137 294C144 287.667 161 264.5 160 252.5C160 252.5 188.746 267.119 208 274.5Z"
    fill="url(#paint7_radial_1306_1046)" />
  <path
    d="M208 274.5C219.935 279.075 233.8 285 239 285C246.5 279 256.5 286.5 257 292.5C257.5 298.5 259.783 318 255 328C251.593 335.124 239.083 338.949 230 341.103C229.5 344.568 227.1 352.8 221.5 358C211 354 230 360 208 344C185 315 140 311 137 294C144 287.667 161 264.5 160 252.5C160 252.5 188.746 267.119 208 274.5Z"
    fill="url(#paint8_radial_1306_1046)" />
  <path
    d="M208 274.5C219.935 279.075 233.8 285 239 285C246.5 279 256.5 286.5 257 292.5C257.5 298.5 259.783 318 255 328C251.593 335.124 239.083 338.949 230 341.103C229.5 344.568 227.1 352.8 221.5 358C211 354 230 360 208 344C185 315 140 311 137 294C144 287.667 161 264.5 160 252.5C160 252.5 188.746 267.119 208 274.5Z"
    fill="url(#paint9_radial_1306_1046)" />
  <path
    d="M208 274.5C219.935 279.075 233.8 285 239 285C246.5 279 256.5 286.5 257 292.5C257.5 298.5 259.783 318 255 328C251.593 335.124 239.083 338.949 230 341.103C229.5 344.568 227.1 352.8 221.5 358C211 354 230 360 208 344C185 315 140 311 137 294C144 287.667 161 264.5 160 252.5C160 252.5 188.746 267.119 208 274.5Z"
    fill="url(#paint10_radial_1306_1046)" />
  <path
    d="M208 274.5C219.935 279.075 233.8 285 239 285C246.5 279 256.5 286.5 257 292.5C257.5 298.5 259.783 318 255 328C251.593 335.124 239.083 338.949 230 341.103C229.5 344.568 227.1 352.8 221.5 358C211 354 230 360 208 344C185 315 140 311 137 294C144 287.667 161 264.5 160 252.5C160 252.5 188.746 267.119 208 274.5Z"
    fill="url(#paint11_radial_1306_1046)" />
  <path
    d="M208 274.5C219.935 279.075 233.8 285 239 285C246.5 279 256.5 286.5 257 292.5C257.5 298.5 259.783 318 255 328C251.593 335.124 239.083 338.949 230 341.103C229.5 344.568 227.1 352.8 221.5 358C211 354 230 360 208 344C185 315 140 311 137 294C144 287.667 161 264.5 160 252.5C160 252.5 188.746 267.119 208 274.5Z"
    fill="url(#paint12_radial_1306_1046)" />
  <path
    d="M208 274.5C219.935 279.075 233.8 285 239 285C246.5 279 256.5 286.5 257 292.5C257.5 298.5 259.783 318 255 328C251.593 335.124 239.083 338.949 230 341.103C229.5 344.568 227.1 352.8 221.5 358C211 354 230 360 208 344C185 315 140 311 137 294C144 287.667 161 264.5 160 252.5C160 252.5 188.746 267.119 208 274.5Z"
    fill="url(#paint13_radial_1306_1046)" />
  <path
    d="M208 274.5C219.935 279.075 233.8 285 239 285C246.5 279 256.5 286.5 257 292.5C257.5 298.5 259.783 318 255 328C251.593 335.124 239.083 338.949 230 341.103C229.5 344.568 227.1 352.8 221.5 358C211 354 230 360 208 344C185 315 140 311 137 294C144 287.667 161 264.5 160 252.5C160 252.5 188.746 267.119 208 274.5Z"
    fill="url(#paint14_radial_1306_1046)" />
  <path
    d="M224.5 281C224.709 282.46 219.781 282.963 213.75 282M213.75 282C205.326 280.655 194.748 276.45 193 268M213.75 282C212.749 280 213.833 277.833 214.5 277M209 275C209.333 276.333 209.8 279.3 209 280.5M201.5 272C200.5 272.833 198.8 275 200 277M221.5 343C222.667 341.167 225 336.8 225 334M221.5 343C217.5 343.667 208 344 208 344M221.5 343C223.225 342.569 226.334 341.972 230 341.103M208 344C215.5 340 217.5 321 214.5 318.5C217.869 319.043 223.052 319.516 226.5 319.363M208 344C230 360 211 354 221.5 358C227.1 352.8 229.5 344.568 230 341.103M208 344C185 315 140 311 137 294C144 287.667 161 264.5 160 252.5C160 252.5 188.746 267.119 208 274.5C219.935 279.075 233.8 285 239 285C246.5 279 256.5 286.5 257 292.5C257.5 298.5 259.783 318 255 328C251.593 335.124 239.083 338.949 230 341.103M230 311C230 311 231.5 316 230 318.5C229.687 319.022 228.34 319.282 226.5 319.363M226.5 319.363C227 320.909 227.7 324.6 226.5 327M140.221 290.687C141.103 292.156 142.781 293.977 144.552 295.5M144.552 295.5L140.5 300.5M144.552 295.5C145.305 296.148 146.124 296.798 147 297.449M147 297.449C146.5 297.633 145 298.9 143 302.5M147 297.449C147.484 297.809 147.984 298.169 148.5 298.529M148.5 298.529C147.701 300.02 145.793 303.2 144.552 304M148.5 298.529C149.441 299.187 150.433 299.844 151.464 300.5M151.464 300.5C150.309 301.333 147.9 303.6 147.5 306M151.464 300.5C154.562 302.472 158.012 304.429 161.5 306.324M158 305C157.5 305.5 156.1 307.1 154.5 309.5M161.5 306.324C160.333 306.883 158 308.7 158 311.5M161.5 306.324C163.979 307.67 166.477 308.985 168.883 310.251L169 310.313M169 310.313C168.667 311.375 167.5 313.8 165.5 315M169 310.313C170.371 311.035 171.711 311.74 173 312.427M173 312.427C173.682 312.79 174.35 313.148 175 313.5C177.03 314.483 179.267 315.662 181.636 317M173 312.427C171.833 313.618 169.6 316.2 170 317M181.636 317C194.237 324.116 210.919 336.022 220.172 346.286M181.636 317C181.424 318.167 180.5 320.7 178.5 321.5M220.172 346.286C222.46 348.823 224.294 351.261 225.5 353.5M220.172 346.286C220.29 346.182 220.399 346.086 220.5 346M220.172 346.286C218.929 347.388 216.866 349.403 216.5 350.5M214.5 344C214.167 344.833 213.2 346.6 212 347"
    stroke="black" stroke-linejoin="round" />
  <path
    d="M222.5 291.5H217.5C215 291.5 215 294.5 218.5 294.5C218.833 295.333 218.5 297.5 218 298.5C217.5 299.5 215.501 297.501 214.5 296.5L214.5 296.5C213.5 295.5 211.4 296.7 213 299.5C214.5 301.333 219.5 302.5 221.5 300C222 298.5 222 294.5 222 294.5C226 294.5 226 291.5 222.5 291.5Z"
    fill="url(#paint15_radial_1306_1046)" stroke="black" stroke-linejoin="round" />
  <path
    d="M222.5 295C225 294 227.667 296.333 228.5 299C229.3 300.668 226.75 301.5 226 300C224.5 297 222.5 298 223.5 300C224.5 301.5 226 303.5 225.5 305.5C224.25 310.5 217.833 308.333 216 306C214 304 216.5 302 217.5 303.5C220 307 224 305 221.5 302.5C219 300 220 296 222.5 295Z"
    fill="url(#paint16_radial_1306_1046)" stroke="black" />
  <path d="M129.5 268L139.5 209L174.25 234.75L209 260.5L199.5 295L229 317L193 318.5L129.5 268Z"
    fill="url(#paint17_linear_1306_1046)" />
  <path
    d="M193 318.5L129.5 268L139.5 209L174.25 234.75L209 260.5L199.5 295M193 318.5L229 317L199.5 295M193 318.5L199.5 295M165.5 253C157 249 154 259.5 156 264.5C158 269.5 162.5 264.5 163 265.5C163 269.5 166.333 270.833 168 271C172.089 271 173.5 266.5 173.5 263.5C168.5 263.5 171 257.5 174 257.5C172.925 255.755 170.373 253.732 168.5 254C168.5 254 171.676 252.468 171.5 252C170 248 168 247.5 165.5 249C165 250 165.5 253 165.5 253Z"
    stroke="black" stroke-linejoin="round" />
  <path
    d="M207.224 198.5C201.224 192 210.724 180 216.724 188.5M176.5 186C151 163 182 119 211.5 141.5C225.06 151.843 224.147 166.939 216.724 178C207.998 191.002 190.278 198.428 176.5 186Z"
    stroke="black" stroke-linecap="round" />
  <path d="M235.5 187C231.5 181.5 222.5 177 218 178" stroke="black" stroke-width="3" stroke-linecap="round" />
  <path
    d="M289 216.427C299.221 203.276 298.936 182.685 278 172.5C241 154.5 215.5 210 251.5 225.5C267.13 232.23 281.158 226.518 289 216.427ZM289 216.427C293 216.427 302 225.5 313.5 238"
    stroke="black" stroke-linecap="round" />
  <path
    d="M227 80C293.4 62.8 334.667 97.1667 347 116.5C354.5 110 358.5 91.5 341 81.5C352 76.5 386 101 349.5 121.5C371.5 134.5 386.5 155.5 378.5 210.5C375.5 225.5 360 247 336.5 253.5C335.833 250.833 332.2 245.5 323 245.5C323.165 248.474 313.668 254.395 303.762 254.499C303.67 254.513 303.583 254.514 303.5 254.5C303.587 254.5 303.675 254.5 303.762 254.499C307.012 253.986 315.849 236.156 310.5 224C278.5 207 258 163 278.5 118.5C267 123 237 157 262 186.5C234 176.5 213 158 214.5 127.5C207 139 212 158.5 217 163C205 155.5 196.5 144.5 196.5 126C193.5 128.5 182.5 146.5 178.5 157C176.1 146.2 179.667 129.333 182 122C177.6 123.2 170.5 138 168.5 145.5C158.5 103.5 215.5 85.5 208.5 84.5C201.5 83 193 68.5 194 62C197 71 214.5 83.2379 227 80Z"
    fill="url(#paint18_linear_1306_1046)" />
  <path
    d="M227 80L227.125 80.484L227 80ZM194 62L194.474 61.8419C194.401 61.6228 194.188 61.4823 193.958 61.5018C193.728 61.5213 193.541 61.6958 193.506 61.924L194 62ZM208.5 84.5L208.395 84.9889L208.412 84.9925L208.429 84.995L208.5 84.5ZM168.5 145.5L168.014 145.616C168.067 145.839 168.264 145.997 168.493 146C168.722 146.003 168.924 145.85 168.983 145.629L168.5 145.5ZM182 122L182.476 122.152C182.532 121.977 182.488 121.786 182.361 121.654C182.234 121.522 182.045 121.469 181.868 121.518L182 122ZM178.5 157L178.012 157.108C178.06 157.324 178.243 157.483 178.464 157.499C178.684 157.515 178.889 157.384 178.967 157.178L178.5 157ZM196.5 126H197V124.932L196.18 125.616L196.5 126ZM217 163L216.735 163.424C216.955 163.561 217.243 163.508 217.399 163.301C217.555 163.094 217.527 162.802 217.334 162.628L217 163ZM214.5 127.5L214.999 127.525C215.01 127.299 214.869 127.094 214.654 127.024C214.439 126.955 214.205 127.038 214.081 127.227L214.5 127.5ZM262 186.5L261.832 186.971C262.045 187.047 262.282 186.971 262.411 186.785C262.54 186.599 262.528 186.349 262.381 186.177L262 186.5ZM278.5 118.5L278.954 118.709C279.039 118.524 279.004 118.305 278.864 118.157C278.724 118.009 278.508 117.96 278.318 118.034L278.5 118.5ZM310.5 224L310.958 223.799C310.912 223.696 310.834 223.611 310.735 223.558L310.5 224ZM303.5 254.5V254C303.24 254 303.023 254.199 303.002 254.459C302.98 254.718 303.161 254.95 303.418 254.993L303.5 254.5ZM323 245.5V245C322.863 245 322.731 245.057 322.637 245.156C322.542 245.256 322.493 245.391 322.501 245.528L323 245.5ZM336.5 253.5L336.015 253.621C336.048 253.752 336.132 253.864 336.248 253.932C336.365 254 336.503 254.018 336.633 253.982L336.5 253.5ZM378.5 210.5L378.99 210.598C378.992 210.589 378.994 210.581 378.995 210.572L378.5 210.5ZM345 120.5L344.553 120.276C344.484 120.414 344.482 120.576 344.549 120.715C344.615 120.854 344.741 120.955 344.892 120.988L345 120.5ZM341 81.5L340.793 81.0448C340.622 81.1225 340.509 81.2894 340.501 81.4769C340.492 81.6644 340.589 81.841 340.752 81.9341L341 81.5ZM347.421 116.231C334.99 96.7432 293.515 62.2537 226.875 79.516L227.125 80.484C293.285 63.3462 334.344 97.5901 346.578 116.769L347.421 116.231ZM226.875 79.516C220.813 81.0863 213.457 78.91 207.194 75.1603C204.074 73.2916 201.25 71.0468 199.025 68.7192C196.796 66.3864 195.192 63.9962 194.474 61.8419L193.526 62.1581C194.308 64.5038 196.017 67.0183 198.303 69.4102C200.594 71.8073 203.489 74.1071 206.681 76.0182C213.043 79.8279 220.687 82.1517 227.125 80.484L226.875 79.516ZM193.506 61.924C193.238 63.6639 193.609 65.8779 194.385 68.205C195.165 70.544 196.37 73.0481 197.825 75.389C199.28 77.7294 200.994 79.9212 202.797 81.6287C204.592 83.3286 206.516 84.5862 208.395 84.9889L208.605 84.0111C206.984 83.6638 205.22 82.5464 203.484 80.9026C201.756 79.2663 200.095 77.1456 198.675 74.861C197.255 72.5769 196.085 70.1435 195.334 67.8888C194.578 65.6221 194.262 63.5861 194.494 62.076L193.506 61.924ZM208.429 84.995C208.521 85.0081 208.589 85.0232 208.636 85.0377C208.685 85.0526 208.7 85.0631 208.697 85.0608C208.692 85.0574 208.656 85.0321 208.628 84.9747C208.597 84.9128 208.594 84.852 208.6 84.8119C208.608 84.7604 208.623 84.7847 208.519 84.8996C208.427 85.0008 208.282 85.1302 208.076 85.2895C207.238 85.9354 205.661 86.8644 203.542 88.1164C199.339 90.6011 193.154 94.2738 187.059 99.2373C174.88 109.157 162.947 124.335 168.014 145.616L168.986 145.384C164.053 124.665 175.62 109.843 187.691 100.013C193.721 95.1012 199.849 91.4614 204.051 88.9773C206.136 87.745 207.786 86.7755 208.686 86.0816C208.914 85.906 209.111 85.7352 209.26 85.5709C209.396 85.4202 209.55 85.2135 209.589 84.965C209.61 84.8263 209.595 84.6756 209.524 84.5321C209.456 84.3931 209.351 84.2948 209.249 84.2268C209.056 84.0996 208.81 84.0393 208.571 84.005L208.429 84.995ZM168.983 145.629C169.971 141.925 172.229 136.387 174.79 131.624C176.07 129.244 177.417 127.075 178.709 125.432C179.354 124.611 179.978 123.932 180.565 123.425C181.157 122.915 181.683 122.605 182.132 122.482L181.868 121.518C181.217 121.695 180.559 122.11 179.912 122.668C179.261 123.23 178.593 123.962 177.923 124.814C176.582 126.519 175.205 128.743 173.91 131.151C171.321 135.963 169.029 141.575 168.017 145.371L168.983 145.629ZM181.524 121.848C180.348 125.543 178.867 131.621 177.98 138.132C177.094 144.635 176.793 151.621 178.012 157.108L178.988 156.892C177.807 151.579 178.09 144.732 178.97 138.268C179.85 131.812 181.319 125.79 182.476 122.152L181.524 121.848ZM178.967 157.178C180.952 151.968 184.685 144.871 188.305 138.755C190.114 135.699 191.889 132.897 193.396 130.705C194.15 129.609 194.835 128.67 195.421 127.93C196.013 127.182 196.487 126.662 196.82 126.384L196.18 125.616C195.763 125.963 195.237 126.552 194.637 127.309C194.032 128.072 193.334 129.031 192.572 130.138C191.049 132.353 189.261 135.176 187.445 138.245C183.815 144.379 180.048 151.532 178.033 156.822L178.967 157.178ZM196 126C196 135.33 198.145 142.797 201.822 148.884C205.498 154.967 210.687 159.644 216.735 163.424L217.265 162.576C211.313 158.856 206.252 154.283 202.678 148.366C199.105 142.453 197 135.17 197 126H196ZM217.334 162.628C216.169 161.579 214.954 159.601 213.91 156.986C212.871 154.386 212.022 151.207 211.558 147.807C210.628 140.991 211.261 133.381 214.919 127.773L214.081 127.227C210.239 133.119 209.622 141.009 210.567 147.943C211.041 151.418 211.91 154.676 212.981 157.357C214.046 160.024 215.331 162.171 216.666 163.372L217.334 162.628ZM214.001 127.475C213.244 142.859 218.166 155.236 226.813 165.019C235.45 174.79 247.783 181.953 261.832 186.971L262.168 186.029C248.217 181.047 236.05 173.96 227.562 164.356C219.084 154.764 214.256 142.641 214.999 127.525L214.001 127.475ZM262.381 186.177C250.039 171.613 251.262 155.957 257.017 143.332C259.898 137.014 263.912 131.465 267.918 127.218C271.935 122.96 275.906 120.052 278.682 118.966L278.318 118.034C275.344 119.198 271.252 122.227 267.191 126.532C263.12 130.848 259.04 136.486 256.108 142.918C250.238 155.793 248.961 171.887 261.619 186.823L262.381 186.177ZM278.046 118.291C257.43 163.042 278.041 207.323 310.265 224.442L310.735 223.558C278.959 206.677 258.57 162.958 278.954 118.709L278.046 118.291ZM310.042 224.201C312.645 230.116 311.81 237.47 309.879 243.462C308.917 246.449 307.691 249.068 306.513 250.963C305.924 251.911 305.354 252.665 304.845 253.192C304.315 253.739 303.919 253.968 303.684 254.005L303.84 254.993C304.417 254.902 305.008 254.461 305.563 253.887C306.138 253.293 306.75 252.476 307.363 251.49C308.589 249.518 309.847 246.823 310.831 243.769C312.794 237.679 313.704 230.04 310.958 223.799L310.042 224.201ZM303.684 254.005C303.638 254.012 303.605 254.011 303.582 254.007L303.418 254.993C303.56 255.017 303.702 255.014 303.84 254.993L303.684 254.005ZM303.5 255C303.589 255 303.678 255 303.767 254.999L303.757 253.999C303.671 254 303.586 254 303.5 254V255ZM303.767 254.999C308.811 254.946 313.739 253.414 317.388 251.52C319.213 250.572 320.737 249.524 321.802 248.508C322.334 248 322.764 247.489 323.058 246.99C323.349 246.496 323.527 245.978 323.499 245.472L322.501 245.528C322.514 245.765 322.431 246.083 322.196 246.482C321.964 246.877 321.601 247.317 321.112 247.784C320.133 248.718 318.695 249.714 316.927 250.632C313.393 252.467 308.619 253.948 303.757 253.999L303.767 254.999ZM323 246C331.972 246 335.404 251.178 336.015 253.621L336.985 253.379C336.262 250.488 332.428 245 323 245V246ZM336.633 253.982C348.493 250.702 358.322 243.64 365.561 235.52C372.795 227.405 377.47 218.201 378.99 210.598L378.01 210.402C376.53 217.799 371.955 226.845 364.814 234.855C357.678 242.86 348.007 249.798 336.367 253.018L336.633 253.982ZM378.995 210.572C383.001 183.026 381.26 163.928 375.714 150.064C370.162 136.184 360.82 127.608 349.754 121.07L349.246 121.93C360.18 128.392 369.338 136.816 374.786 150.436C380.24 164.072 381.999 182.974 378.005 210.428L378.995 210.572ZM349.608 121.012L345.108 120.012L344.892 120.988L349.392 121.988L349.608 121.012ZM345.447 120.724L347.447 116.724L346.553 116.276L344.553 120.276L345.447 120.724ZM347.327 116.878C351.202 113.52 354.13 107.119 353.875 100.294C353.618 93.4328 350.147 86.1511 341.248 81.0659L340.752 81.9341C349.353 86.8489 352.632 93.8172 352.875 100.331C353.12 106.881 350.298 112.98 346.673 116.122L347.327 116.878ZM341.207 81.9552C343.756 80.7964 347.772 81.3178 351.893 83.2121C355.986 85.0936 360.048 88.2714 362.645 92.2126C365.235 96.1438 366.357 100.81 364.645 105.734C362.927 110.676 358.323 115.971 349.255 121.064L349.745 121.936C358.927 116.779 363.76 111.324 365.589 106.063C367.425 100.783 366.202 95.7937 363.48 91.6624C360.764 87.5411 356.545 84.2502 352.31 82.3035C348.103 80.3697 343.744 79.7036 340.793 81.0448L341.207 81.9552Z"
    fill="black" />
  <g filter="url(#filter0_f_1306_1046)">
    <path d="M225.93 124.169C221.43 119.669 234.43 100.169 239.93 104.669C245.43 109.169 230.43 128.669 225.93 124.169Z"
      fill="#B5B4BA" fill-opacity="0.8" />
    <path d="M236.43 129.669C233.43 127.669 237.43 118.669 240.93 120.669C244.43 122.669 239.43 131.669 236.43 129.669Z"
      fill="#B5B4BA" fill-opacity="0.8" />
    <path d="M244.43 133.169C241.43 131.169 243.93 126.169 247.43 128.169C250.93 130.169 247.43 135.169 244.43 133.169Z"
      fill="#B5B4BA" fill-opacity="0.8" />
    <path d="M305.43 180.669C297.43 178.17 300.43 151.169 309.43 153.169C318.43 155.169 313.43 183.169 305.43 180.669Z"
      fill="#B5B4BA" fill-opacity="0.8" />
    <path
      d="M321.261 183.169C315.761 183.169 316.261 168.169 322.261 168.169C328.261 168.169 326.761 183.169 321.261 183.169Z"
      fill="#B5B4BA" fill-opacity="0.8" />
    <path
      d="M334.515 183.169C331.099 183.169 330.099 177.169 334.515 177.169C338.93 177.169 337.93 183.169 334.515 183.169Z"
      fill="#B5B4BA" fill-opacity="0.8" />
    <path
      d="M346.93 184.169C344.034 184.169 343.186 179.169 346.93 179.169C350.674 179.169 349.826 184.169 346.93 184.169Z"
      fill="#B5B4BA" fill-opacity="0.8" />
  </g>
  <g filter="url(#filter1_f_1306_1046)">
    <path
      d="M217 226.5C218 215 203 206.5 201.5 229.5C200.167 233.833 201 242.5 207.5 242.5C214 242.5 216 238 217 226.5Z"
      fill="url(#paint19_radial_1306_1046)" />
  </g>
  <path
    d="M203.539 220.097C206.539 209.597 217.039 217.097 217.039 226.597C217.039 236.097 214.039 242.597 207.539 242.597C201.039 242.597 200.206 233.931 201.539 229.597"
    stroke="black" stroke-linecap="round" />
  <path d="M205 248.5C206 249 208.7 249.7 211.5 248.5" stroke="black" stroke-linecap="round" />
  <path d="M189.5 178.5C182 174 195.537 151.504 202.537 155.504C209.537 159.504 197 183 189.5 178.5Z"
    fill="url(#paint20_linear_1306_1046)" />
  <path d="M189.5 178.5C182 174 195.537 151.504 202.537 155.504C209.537 159.504 197 183 189.5 178.5Z"
    fill="url(#paint21_linear_1306_1046)" />
  <path
    d="M271.537 188.004C279.037 192.504 266.037 220.504 257.537 214.004C249.037 207.504 264.037 183.504 271.537 188.004Z"
    fill="url(#paint22_linear_1306_1046)" />
  <path
    d="M271.537 188.004C279.037 192.504 266.037 220.504 257.537 214.004C249.037 207.504 264.037 183.504 271.537 188.004Z"
    fill="url(#paint23_linear_1306_1046)" />
  <g filter="url(#filter2_f_1306_1046)">
    <path d="M201 157C199 156 195.5 162 198 163C200.5 164 203 158 201 157Z" fill="#F4F5F7" />
  </g>
  <g filter="url(#filter3_f_1306_1046)">
    <path
      d="M268.209 191.126C266.032 190.001 262.223 196.749 264.944 197.874C267.665 198.999 270.386 192.251 268.209 191.126Z"
      fill="#F4F5F7" />
  </g>
  <path
    d="M208.5 341C216 340 215 320.5 215 320.5C215 320.5 207.5 319 209.5 311.5C209 307.5 201 302 197 306C193 310 199 315.5 193.5 319.5C183 312.5 178.5 302.5 176.5 311C171 330.5 195.614 342.718 208.5 341Z"
    fill="url(#paint24_radial_1306_1046)" />
  <path
    d="M215 320.5L215.499 320.474L215.479 320.086L215.098 320.01L215 320.5ZM208.5 341L208.434 340.504L208.434 340.504L208.5 341ZM176.5 311L176.981 311.136L176.984 311.125L176.987 311.115L176.5 311ZM209.5 311.5L209.983 311.629C210 311.567 210.004 311.502 209.996 311.438L209.5 311.5ZM197 306L196.647 305.646L196.647 305.646L197 306ZM193.5 319.5L193.223 319.916L193.513 320.109L193.794 319.904L193.5 319.5ZM215 320.5C214.501 320.526 214.501 320.526 214.501 320.526C214.501 320.526 214.501 320.526 214.501 320.526C214.501 320.527 214.501 320.527 214.501 320.528C214.501 320.53 214.501 320.534 214.501 320.538C214.502 320.547 214.502 320.561 214.503 320.578C214.505 320.614 214.507 320.668 214.51 320.738C214.515 320.879 214.522 321.087 214.529 321.352C214.541 321.882 214.551 322.641 214.539 323.556C214.516 325.388 214.407 327.834 214.067 330.307C213.726 332.787 213.157 335.257 212.23 337.156C211.301 339.06 210.067 340.287 208.434 340.504L208.566 341.496C210.683 341.213 212.137 339.628 213.129 337.594C214.124 335.555 214.711 332.963 215.058 330.443C215.405 327.916 215.516 325.425 215.539 323.569C215.551 322.64 215.541 321.868 215.528 321.328C215.522 321.058 215.515 320.845 215.509 320.7C215.506 320.627 215.504 320.571 215.502 320.533C215.501 320.514 215.501 320.5 215.5 320.49C215.5 320.485 215.5 320.481 215.5 320.479C215.5 320.477 215.5 320.476 215.499 320.476C215.499 320.475 215.499 320.475 215.499 320.475C215.499 320.475 215.499 320.474 215 320.5ZM208.434 340.504C202.146 341.343 192.899 338.772 185.904 333.556C178.928 328.354 174.307 320.618 176.981 311.136L176.019 310.864C173.193 320.882 178.129 329.006 185.306 334.358C192.466 339.696 201.969 342.375 208.566 341.496L208.434 340.504ZM215 320.5C215.098 320.01 215.098 320.01 215.099 320.01C215.099 320.01 215.099 320.01 215.099 320.01C215.099 320.01 215.099 320.01 215.099 320.01C215.098 320.01 215.098 320.01 215.097 320.009C215.094 320.009 215.09 320.008 215.085 320.007C215.073 320.004 215.055 320 215.031 319.995C214.982 319.983 214.909 319.965 214.815 319.939C214.627 319.887 214.357 319.804 214.039 319.682C213.398 319.436 212.574 319.037 211.814 318.424C211.057 317.812 210.372 316.993 209.987 315.904C209.604 314.817 209.505 313.421 209.983 311.629L209.017 311.371C208.495 313.329 208.584 314.933 209.044 316.237C209.503 317.538 210.318 318.501 211.186 319.201C212.051 319.9 212.977 320.345 213.68 320.615C214.033 320.751 214.334 320.843 214.548 320.903C214.656 320.932 214.741 320.954 214.802 320.968C214.832 320.975 214.856 320.98 214.873 320.984C214.881 320.986 214.888 320.987 214.893 320.988C214.895 320.989 214.897 320.989 214.899 320.99C214.899 320.99 214.9 320.99 214.901 320.99C214.901 320.99 214.901 320.99 214.901 320.99C214.902 320.99 214.902 320.99 215 320.5ZM209.996 311.438C209.854 310.301 209.193 309.118 208.276 308.063C207.352 307 206.132 306.025 204.799 305.309C202.17 303.899 198.885 303.408 196.647 305.646L197.354 306.353C199.115 304.592 201.83 304.851 204.326 306.191C205.556 306.85 206.679 307.75 207.521 308.719C208.37 309.695 208.896 310.699 209.004 311.562L209.996 311.438ZM196.647 305.646C194.439 307.854 195.014 310.517 195.317 312.815C195.473 314.001 195.568 315.107 195.319 316.149C195.075 317.166 194.491 318.161 193.206 319.096L193.794 319.904C195.259 318.839 195.988 317.646 196.291 316.382C196.588 315.143 196.465 313.873 196.308 312.685C195.986 310.233 195.561 308.146 197.354 306.353L196.647 305.646ZM193.777 319.084C188.555 315.603 184.9 311.435 182.139 309.058C181.458 308.473 180.82 307.988 180.226 307.668C179.637 307.351 179.032 307.164 178.439 307.265C177.825 307.37 177.337 307.764 176.952 308.369C176.573 308.965 176.269 309.801 176.013 310.885L176.987 311.115C177.232 310.074 177.505 309.363 177.796 308.906C178.081 308.458 178.354 308.294 178.608 308.251C178.883 308.204 179.25 308.278 179.752 308.549C180.25 308.817 180.823 309.246 181.486 309.817C184.1 312.065 187.945 316.398 193.223 319.916L193.777 319.084Z"
    fill="black" />
  <path
    d="M124 256.5C120.838 259.662 119.5 263.5 119.5 268.5C119.5 273.5 124.054 277.858 135 279.5C145 281 141.833 275.5 136.5 273.5C128.9 269.5 129.5 265 130.5 264C131.5 263 131.5 254 127.5 250C123.5 246 124.5 256 124 256.5Z"
    fill="url(#paint25_radial_1306_1046)" stroke="black" />
  <defs>
    <filter id="filter0_f_1306_1046" x="223" y="102" width="128.43" height="84.1693" filterUnits="userSpaceOnUse"
      color-interpolation-filters="sRGB">
      <feFlood flood-opacity="0" result="BackgroundImageFix" />
      <feBlend mode="normal" in="SourceGraphic" in2="BackgroundImageFix" result="shape" />
      <feGaussianBlur stdDeviation="1" result="effect1_foregroundBlur_1306_1046" />
    </filter>
    <filter id="filter1_f_1306_1046" x="196.961" y="210.982" width="24.0872" height="35.5179"
      filterUnits="userSpaceOnUse" color-interpolation-filters="sRGB">
      <feFlood flood-opacity="0" result="BackgroundImageFix" />
      <feBlend mode="normal" in="SourceGraphic" in2="BackgroundImageFix" result="shape" />
      <feGaussianBlur stdDeviation="2" result="effect1_foregroundBlur_1306_1046" />
    </filter>
    <filter id="filter2_f_1306_1046" x="196.133" y="155.888" width="6.59424" height="8.224" filterUnits="userSpaceOnUse"
      color-interpolation-filters="sRGB">
      <feFlood flood-opacity="0" result="BackgroundImageFix" />
      <feBlend mode="normal" in="SourceGraphic" in2="BackgroundImageFix" result="shape" />
      <feGaussianBlur stdDeviation="0.5" result="effect1_foregroundBlur_1306_1046" />
    </filter>
    <filter id="filter3_f_1306_1046" x="263" y="190" width="7" height="9" filterUnits="userSpaceOnUse"
      color-interpolation-filters="sRGB">
      <feFlood flood-opacity="0" result="BackgroundImageFix" />
      <feBlend mode="normal" in="SourceGraphic" in2="BackgroundImageFix" result="shape" />
      <feGaussianBlur stdDeviation="0.5" result="effect1_foregroundBlur_1306_1046" />
    </filter>
    <linearGradient id="paint0_linear_1306_1046" x1="320.5" y1="126.5" x2="191.5" y2="255"
      gradientUnits="userSpaceOnUse">
      <stop stop-color="#FFEFE8" />
      <stop offset="1" stop-color="#FFEFE8" />
    </linearGradient>
    <radialGradient id="paint1_radial_1306_1046" cx="0" cy="0" r="1" gradientUnits="userSpaceOnUse"
      gradientTransform="translate(188 177.5) rotate(-173.709) scale(63.8847 29.5663)">
      <stop stop-color="#F9C9B3" />
      <stop offset="1" stop-color="#F8F8F8" stop-opacity="0" />
    </radialGradient>
    <radialGradient id="paint2_radial_1306_1046" cx="0" cy="0" r="1" gradientUnits="userSpaceOnUse"
      gradientTransform="translate(288.5 248) rotate(-13.0851) scale(94.9658 153.88)">
      <stop stop-color="#F9C9B3" />
      <stop offset="1" stop-color="#F8F8F8" stop-opacity="0" />
    </radialGradient>
    <radialGradient id="paint3_radial_1306_1046" cx="0" cy="0" r="1" gradientUnits="userSpaceOnUse"
      gradientTransform="translate(211.995 399.146) rotate(90) scale(14.1244 10.5458)">
      <stop stop-color="#FFE8DD" />
      <stop offset="1" stop-color="#FFDDCD" />
    </radialGradient>
    <radialGradient id="paint4_radial_1306_1046" cx="0" cy="0" r="1" gradientUnits="userSpaceOnUse"
      gradientTransform="translate(123.576 361.885) rotate(90) scale(14.1381 19.0212)">
      <stop stop-color="#FFE8DD" />
      <stop offset="1" stop-color="#FFDDCD" />
    </radialGradient>
    <radialGradient id="paint5_radial_1306_1046" cx="0" cy="0" r="1" gradientUnits="userSpaceOnUse"
      gradientTransform="translate(123 316.5) rotate(36.3604) scale(101.204 125.085)">
      <stop stop-color="#F2D2A0" />
      <stop offset="1" stop-color="#F2BA62" />
    </radialGradient>
    <linearGradient id="paint6_linear_1306_1046" x1="258" y1="276.5" x2="139.5" y2="309" gradientUnits="userSpaceOnUse">
      <stop stop-color="#05330F" />
      <stop offset="1" stop-color="#178625" />
    </linearGradient>
    <radialGradient id="paint7_radial_1306_1046" cx="0" cy="0" r="1" gradientUnits="userSpaceOnUse"
      gradientTransform="translate(140 296) rotate(40.2363) scale(8.51469 4.64437)">
      <stop stop-color="#D77A3D" />
      <stop offset="0.495286" stop-color="#C26E37" stop-opacity="0.87" />
      <stop offset="1" stop-color="#D7B199" stop-opacity="0" />
    </radialGradient>
    <radialGradient id="paint8_radial_1306_1046" cx="0" cy="0" r="1" gradientUnits="userSpaceOnUse"
      gradientTransform="translate(152.5 305) rotate(-149.036) scale(8.74643 4.77539)">
      <stop stop-color="#D77A3D" />
      <stop offset="0.520621" stop-color="#D27D44" stop-opacity="0.64" />
      <stop offset="1" stop-color="#D7B199" stop-opacity="0" />
    </radialGradient>
    <radialGradient id="paint9_radial_1306_1046" cx="0" cy="0" r="1" gradientUnits="userSpaceOnUse"
      gradientTransform="translate(163.5 310.5) rotate(-147.529) scale(6.5192 3.53098)">
      <stop stop-color="#D77A3D" />
      <stop offset="0.6875" stop-color="#D0814D" stop-opacity="0.59" />
      <stop offset="1" stop-color="#D7B199" stop-opacity="0" />
    </radialGradient>
    <radialGradient id="paint10_radial_1306_1046" cx="0" cy="0" r="1" gradientUnits="userSpaceOnUse"
      gradientTransform="translate(176 317.5) rotate(-143.973) scale(6.80074 3.53326)">
      <stop stop-color="#D77A3D" />
      <stop offset="0.71875" stop-color="#BE723F" stop-opacity="0.79" />
      <stop offset="1" stop-color="#D7B199" stop-opacity="0" />
    </radialGradient>
    <radialGradient id="paint11_radial_1306_1046" cx="0" cy="0" r="1" gradientUnits="userSpaceOnUse"
      gradientTransform="translate(221.5 353.5) rotate(-130.236) scale(8.51469 4.68594)">
      <stop stop-color="#D77A3D" />
      <stop offset="0.455774" stop-color="#A46F4C" />
      <stop offset="1" stop-color="#D7B199" stop-opacity="0" />
    </radialGradient>
    <radialGradient id="paint12_radial_1306_1046" cx="0" cy="0" r="1" gradientUnits="userSpaceOnUse"
      gradientTransform="translate(211 345.5) rotate(-23.1986) scale(3.80789 2.42249)">
      <stop stop-color="#D77A3D" />
      <stop offset="1" stop-color="#D7B199" stop-opacity="0" />
    </radialGradient>
    <radialGradient id="paint13_radial_1306_1046" cx="0" cy="0" r="1" gradientUnits="userSpaceOnUse"
      gradientTransform="translate(204 276) rotate(27.8973) scale(9.61769 3.652)">
      <stop stop-color="#D77A3D" />
      <stop offset="0.65391" stop-color="#E98D51" stop-opacity="0.65" />
      <stop offset="1" stop-color="#D7B199" stop-opacity="0" />
    </radialGradient>
    <radialGradient id="paint14_radial_1306_1046" cx="0" cy="0" r="1" gradientUnits="userSpaceOnUse"
      gradientTransform="translate(218.5 280) rotate(-175.914) scale(7.01783 2.66479)">
      <stop stop-color="#D77A3D" />
      <stop offset="0.65391" stop-color="#E98D51" stop-opacity="0.65" />
      <stop offset="1" stop-color="#D7B199" stop-opacity="0" />
    </radialGradient>
    <radialGradient id="paint15_radial_1306_1046" cx="0" cy="0" r="1" gradientUnits="userSpaceOnUse"
      gradientTransform="translate(221 295.5) rotate(129.289) scale(7.10634 5.28401)">
      <stop stop-color="#F5F5C5" />
      <stop offset="1" stop-color="#F9FD04" />
    </radialGradient>
    <radialGradient id="paint16_radial_1306_1046" cx="0" cy="0" r="1" gradientUnits="userSpaceOnUse"
      gradientTransform="translate(221.5 297) rotate(87.7668) scale(11.5431 10.6068)">
      <stop stop-color="#F5F5C5" />
      <stop offset="1" stop-color="#F9FD04" />
    </radialGradient>
    <linearGradient id="paint17_linear_1306_1046" x1="218.5" y1="248.5" x2="138" y2="278.5"
      gradientUnits="userSpaceOnUse">
      <stop stop-color="#D9D9D9" />
      <stop offset="1" stop-color="#686464" />
    </linearGradient>
    <linearGradient id="paint18_linear_1306_1046" x1="362.5" y1="87" x2="253.5" y2="180.5"
      gradientUnits="userSpaceOnUse">
      <stop stop-color="#5B5B5B" />
      <stop offset="1" />
    </linearGradient>
    <radialGradient id="paint19_radial_1306_1046" cx="0" cy="0" r="1" gradientUnits="userSpaceOnUse"
      gradientTransform="translate(214.5 219.5) rotate(116.565) scale(23.4787 13.7258)">
      <stop stop-color="#B39496" stop-opacity="0.8" />
      <stop offset="0.697917" stop-color="#F9C9B3" stop-opacity="0.3" />
      <stop offset="1" stop-color="#FCE9E0" stop-opacity="0.3" />
    </radialGradient>
    <linearGradient id="paint20_linear_1306_1046" x1="275.537" y1="185.004" x2="253.037" y2="219.504"
      gradientUnits="userSpaceOnUse">
      <stop stop-color="#050507" />
      <stop offset="1" stop-color="#343434" />
    </linearGradient>
    <linearGradient id="paint21_linear_1306_1046" x1="203.537" y1="154.004" x2="189.037" y2="177.504"
      gradientUnits="userSpaceOnUse">
      <stop />
      <stop offset="1" stop-color="#343434" />
    </linearGradient>
    <linearGradient id="paint22_linear_1306_1046" x1="275.537" y1="185.004" x2="253.037" y2="219.504"
      gradientUnits="userSpaceOnUse">
      <stop stop-color="#050507" />
      <stop offset="1" stop-color="#343434" />
    </linearGradient>
    <linearGradient id="paint23_linear_1306_1046" x1="203.537" y1="154.004" x2="189.037" y2="177.504"
      gradientUnits="userSpaceOnUse">
      <stop />
      <stop offset="1" stop-color="#343434" />
    </linearGradient>
    <radialGradient id="paint24_radial_1306_1046" cx="0" cy="0" r="1" gradientUnits="userSpaceOnUse"
      gradientTransform="translate(206.5 326) rotate(154.058) scale(20.573 21.0012)">
      <stop stop-color="#FFDDCD" />
      <stop offset="1" stop-color="#FFEAE0" />
    </radialGradient>
    <radialGradient id="paint25_radial_1306_1046" cx="0" cy="0" r="1" gradientUnits="userSpaceOnUse"
      gradientTransform="translate(129 261.5) rotate(74.0546) scale(18.2003 13.0533)">
      <stop stop-color="#FFDDCD" />
      <stop offset="1" stop-color="#FFE8DD" />
    </radialGradient>
  </defs>
</svg>
